<svg xmlns="http://www.w3.org/2000/svg" data-v-fde0c5aa="" viewBox="50 75 200 150" width="500px" height="275px" class="iconAbove"><g data-v-fde0c5aa="" id="bab3000d-2af9-4e44-acfe-a6dcf214b946" fill="#2F1911" transform="matrix(3.9387970244784394,0,0,3.9387970244784394,16.258142638929005,167.64566014486948)"><path d="M1.81 12.29L0.95 2.69L2.66 2.69L3.18 8.90L3.18 8.90Q3.21 9.14 3.22 9.63L3.22 9.63L3.22 9.63Q3.23 10.12 3.23 10.29L3.23 10.29L3.30 10.29L3.30 10.29Q3.36 10.12 3.52 9.61L3.52 9.61L3.52 9.61Q3.68 9.10 3.77 8.90L3.77 8.90L6.30 2.69L8.57 2.69L8.93 8.90L8.93 8.90Q8.96 9.30 8.96 9.72L8.96 9.72L8.96 9.72Q8.96 10.14 8.96 10.29L8.96 10.29L9.03 10.29L9.03 10.29Q9.09 10.14 9.25 9.65L9.25 9.65L9.25 9.65Q9.42 9.17 9.53 8.90L9.53 8.90L12.19 2.69L14 2.69L9.69 12.29L7.56 12.29L7.17 5.96L7.17 5.96Q7.14 5.52 7.13 5.10L7.13 5.10L7.13 5.10Q7.13 4.69 7.13 4.54L7.13 4.54L7.07 4.54L7.07 4.54Q7.03 4.69 6.87 5.19L6.87 5.19L6.87 5.19Q6.71 5.68 6.59 5.96L6.59 5.96L3.93 12.29L1.81 12.29ZM19.78 10.71L19.78 10.71Q19.78 11.09 20.19 11.09L20.19 11.09L20.65 11.09L20.44 12.24L20.44 12.24Q20.02 12.46 19.38 12.46L19.38 12.46L19.38 12.46Q18.83 12.46 18.50 12.14L18.50 12.14L18.50 12.14Q18.17 11.82 18.17 11.26L18.17 11.26L18.10 11.26L18.10 11.26Q17.72 11.83 17.12 12.14L17.12 12.14L17.12 12.14Q16.52 12.46 15.85 12.46L15.85 12.46L15.85 12.46Q14.74 12.46 14.11 11.73L14.11 11.73L14.11 11.73Q13.47 11.00 13.47 9.63L13.47 9.63L13.47 9.63Q13.47 8.41 13.86 7.29L13.86 7.29L13.86 7.29Q14.25 6.17 15.02 5.47L15.02 5.47L15.02 5.47Q15.78 4.76 16.84 4.76L16.84 4.76L16.84 4.76Q17.60 4.76 18.10 5.01L18.10 5.01L18.10 5.01Q18.59 5.26 18.90 5.78L18.90 5.78L18.98 5.78L19.42 4.93L20.80 4.93L20.80 4.93Q20.62 5.95 20.48 6.77L20.48 6.77L20.48 6.77Q20.33 7.59 20.22 8.23L20.22 8.23L20.22 8.23Q19.78 10.57 19.78 10.71L19.78 10.71ZM16.44 11.02L16.44 11.02Q17.18 11.02 17.65 10.47L17.65 10.47L17.65 10.47Q18.13 9.93 18.35 9.16L18.35 9.16L18.35 9.16Q18.56 8.39 18.56 7.69L18.56 7.69L18.56 7.69Q18.56 6.16 17.28 6.16L17.28 6.16L17.28 6.16Q16.55 6.16 16.09 6.68L16.09 6.68L16.09 6.68Q15.62 7.20 15.42 7.97L15.42 7.97L15.42 7.97Q15.22 8.74 15.22 9.53L15.22 9.53L15.22 9.53Q15.22 10.28 15.51 10.65L15.51 10.65L15.51 10.65Q15.81 11.02 16.44 11.02L16.44 11.02ZM23.45 12.46L23.45 12.46Q22.60 12.46 22.22 12.08L22.22 12.08L22.22 12.08Q21.84 11.70 21.84 11.09L21.84 11.09L21.84 11.09Q21.84 10.82 22.01 9.94L22.01 9.94L22.64 6.30L21.76 6.30L21.99 4.93L22.88 4.93L23.24 2.87L25.03 2.87L24.56 4.93L25.83 4.93L25.58 6.30L24.32 6.30L23.63 10.22L23.63 10.22Q23.56 10.50 23.56 10.65L23.56 10.65L23.56 10.65Q23.56 11.09 24.07 11.09L24.07 11.09L24.74 11.09L24.54 12.24L24.54 12.24Q24.32 12.32 24.00 12.39L24.00 12.39L24.00 12.39Q23.69 12.46 23.45 12.46L23.45 12.46ZM27.85 12.46L27.85 12.46Q26.99 12.46 26.61 12.08L26.61 12.08L26.61 12.08Q26.24 11.70 26.24 11.09L26.24 11.09L26.24 11.09Q26.24 10.82 26.40 9.94L26.40 9.94L27.03 6.30L26.15 6.30L26.39 4.93L27.27 4.93L27.64 2.87L29.43 2.87L28.95 4.93L30.23 4.93L29.97 6.30L28.71 6.30L28.03 10.22L28.03 10.22Q27.96 10.50 27.96 10.65L27.96 10.65L27.96 10.65Q27.96 11.09 28.46 11.09L28.46 11.09L29.13 11.09L28.94 12.24L28.94 12.24Q28.71 12.32 28.40 12.39L28.40 12.39L28.40 12.39Q28.08 12.46 27.85 12.46L27.85 12.46ZM36.68 10.71L36.68 10.71Q36.68 11.09 37.09 11.09L37.09 11.09L37.55 11.09L37.34 12.24L37.34 12.24Q36.92 12.46 36.27 12.46L36.27 12.46L36.27 12.46Q35.73 12.46 35.40 12.14L35.40 12.14L35.40 12.14Q35.07 11.82 35.07 11.26L35.07 11.26L35.00 11.26L35.00 11.26Q34.62 11.83 34.02 12.14L34.02 12.14L34.02 12.14Q33.42 12.46 32.75 12.46L32.75 12.46L32.75 12.46Q31.64 12.46 31.00 11.73L31.00 11.73L31.00 11.73Q30.37 11.00 30.37 9.63L30.37 9.63L30.37 9.63Q30.37 8.41 30.76 7.29L30.76 7.29L30.76 7.29Q31.15 6.17 31.91 5.47L31.91 5.47L31.91 5.47Q32.68 4.76 33.74 4.76L33.74 4.76L33.74 4.76Q34.50 4.76 34.99 5.01L34.99 5.01L34.99 5.01Q35.49 5.26 35.80 5.78L35.80 5.78L35.88 5.78L36.32 4.93L37.70 4.93L37.70 4.93Q37.52 5.95 37.37 6.77L37.37 6.77L37.37 6.77Q37.23 7.59 37.11 8.23L37.11 8.23L37.11 8.23Q36.68 10.57 36.68 10.71L36.68 10.71ZM33.33 11.02L33.33 11.02Q34.08 11.02 34.55 10.47L34.55 10.47L34.55 10.47Q35.03 9.93 35.25 9.16L35.25 9.16L35.25 9.16Q35.46 8.39 35.46 7.69L35.46 7.69L35.46 7.69Q35.46 6.16 34.17 6.16L34.17 6.16L34.17 6.16Q33.45 6.16 32.98 6.68L32.98 6.68L32.98 6.68Q32.52 7.20 32.32 7.97L32.32 7.97L32.32 7.97Q32.12 8.74 32.12 9.53L32.12 9.53L32.12 9.53Q32.12 10.28 32.41 10.65L32.41 10.65L32.41 10.65Q32.70 11.02 33.33 11.02L33.33 11.02ZM40.85 12.46L40.85 12.46Q39.89 12.46 39.30 12.00L39.30 12.00L39.30 12.00Q38.71 11.55 38.71 10.58L38.71 10.58L38.71 10.58Q38.71 10.28 38.77 9.90L38.77 9.90L38.77 9.90Q38.84 9.53 38.85 9.48L38.85 9.48L39.66 4.93L41.34 4.93L40.56 9.38L40.56 9.38Q40.47 9.88 40.47 10.07L40.47 10.07L40.47 10.07Q40.47 10.57 40.73 10.79L40.73 10.79L40.73 10.79Q40.99 11.00 41.47 11.00L41.47 11.00L41.47 11.00Q42.27 11.00 42.88 10.44L42.88 10.44L42.88 10.44Q43.48 9.88 43.65 8.89L43.65 8.89L44.35 4.93L46.03 4.93L44.73 12.29L43.37 12.29L43.37 11.30L43.27 11.30L43.27 11.30Q42.85 11.80 42.20 12.13L42.20 12.13L42.20 12.13Q41.55 12.46 40.85 12.46L40.85 12.46ZM46.73 12.29L48.03 4.93L49.39 4.93L49.36 6.09L49.46 6.09L49.46 6.09Q49.80 5.47 50.22 5.12L50.22 5.12L50.22 5.12Q50.64 4.76 51.30 4.76L51.30 4.76L51.30 4.76Q51.58 4.76 51.80 4.82L51.80 4.82L51.80 4.82Q52.02 4.87 52.02 4.89L52.02 4.89L51.76 6.47L51.23 6.47L51.23 6.47Q49.43 6.47 49.07 8.51L49.07 8.51L48.41 12.29L46.73 12.29ZM54.32 12.46L54.32 12.46Q53.35 12.46 52.77 12.00L52.77 12.00L52.77 12.00Q52.18 11.55 52.18 10.58L52.18 10.58L52.18 10.58Q52.18 10.28 52.24 9.90L52.24 9.90L52.24 9.90Q52.30 9.53 52.32 9.48L52.32 9.48L53.13 4.93L54.81 4.93L54.03 9.38L54.03 9.38Q53.94 9.88 53.94 10.07L53.94 10.07L53.94 10.07Q53.94 10.57 54.20 10.79L54.20 10.79L54.20 10.79Q54.46 11.00 54.94 11.00L54.94 11.00L54.94 11.00Q55.73 11.00 56.34 10.44L56.34 10.44L56.34 10.44Q56.95 9.88 57.12 8.89L57.12 8.89L57.82 4.93L59.50 4.93L58.20 12.29L56.84 12.29L56.84 11.30L56.74 11.30L56.74 11.30Q56.32 11.80 55.67 12.13L55.67 12.13L55.67 12.13Q55.02 12.46 54.32 12.46L54.32 12.46ZM63.17 12.46L63.17 12.46Q61.66 12.46 60.86 11.94L60.86 11.94L60.86 11.94Q60.06 11.41 60.06 10.54L60.06 10.54L60.06 10.54Q60.06 10.35 60.10 10.18L60.10 10.18L60.10 10.18Q60.14 10.01 60.16 9.97L60.16 9.97L61.80 9.97L61.80 9.97Q61.74 10.09 61.74 10.23L61.74 10.23L61.74 10.23Q61.74 10.71 62.15 10.93L62.15 10.93L62.15 10.93Q62.55 11.14 63.18 11.14L63.18 11.14L63.18 11.14Q63.85 11.14 64.34 10.91L64.34 10.91L64.34 10.91Q64.83 10.68 64.83 10.22L64.83 10.22L64.83 10.22Q64.83 9.81 64.44 9.62L64.44 9.62L64.44 9.62Q64.05 9.42 63.20 9.18L63.20 9.18L63.20 9.18Q62.44 8.99 61.96 8.79L61.96 8.79L61.96 8.79Q61.47 8.60 61.13 8.22L61.13 8.22L61.13 8.22Q60.79 7.84 60.79 7.24L60.79 7.24L60.79 7.24Q60.79 6.08 61.71 5.42L61.71 5.42L61.71 5.42Q62.64 4.76 64.06 4.76L64.06 4.76L64.06 4.76Q65.38 4.76 66.17 5.22L66.17 5.22L66.17 5.22Q66.96 5.68 66.96 6.47L66.96 6.47L66.96 6.47Q66.96 6.65 66.93 6.82L66.93 6.82L66.93 6.82Q66.89 7 66.86 7.07L66.86 7.07L65.23 7.07L65.23 7.07Q65.25 6.99 65.25 6.86L65.25 6.86L65.25 6.86Q65.25 6.50 64.95 6.29L64.95 6.29L64.95 6.29Q64.64 6.09 64.04 6.09L64.04 6.09L64.04 6.09Q63.31 6.09 62.92 6.33L62.92 6.33L62.92 6.33Q62.54 6.57 62.54 6.90L62.54 6.90L62.54 6.90Q62.54 7.25 62.90 7.42L62.90 7.42L62.90 7.42Q63.25 7.59 64.06 7.80L64.06 7.80L64.06 7.80Q64.85 7.99 65.35 8.18L65.35 8.18L65.35 8.18Q65.86 8.37 66.22 8.77L66.22 8.77L66.22 8.77Q66.58 9.17 66.58 9.81L66.58 9.81L66.58 9.81Q66.58 11.17 65.61 11.82L65.61 11.82L65.61 11.82Q64.64 12.46 63.17 12.46L63.17 12.46Z"></path></g><defs data-v-fde0c5aa=""><linearGradient data-v-fde0c5aa="" gradientTransform="rotate(25)" id="85d30ddf-7335-43d8-8fe9-82e76a13d20e" x1="0%" y1="0%" x2="100%" y2="0%"><stop data-v-fde0c5aa="" offset="0%" stop-color="#B82949" stop-opacity="1"></stop><stop data-v-fde0c5aa="" offset="100%" stop-color="#E9B84C" stop-opacity="1"></stop></linearGradient></defs><g data-v-fde0c5aa="" id="64ed30a2-c83b-4118-b6fc-afc9affcc3ea" stroke="none" fill="url(#85d30ddf-7335-43d8-8fe9-82e76a13d20e)" transform="matrix(0.8110020025230767,0,0,0.8110020025230767,109.49045012865868,80.3573193832554)"><switch><g><path d="M25.7 16.7l.8-.1c.8-.1 1.6-.6 2-1.3l.9-1.4c.1-.1.1-.2 0-.3-3.5-7.3-8.7-10-8.7-10 2.7 4.6 4 9 4.6 12.8.1.2.3.3.4.3zM73.3 16.6l1.2.1c.5-3.6 1.7-7.7 4.1-12.1.1-.3-.2-.6-.4-.4-1.7 1.1-5.3 4-7.8 9.5l1.1 1.7c.4.7 1.1 1.1 1.8 1.2z"></path><path d="M93.8 49c.2-.3.2-.7 0-1L89 41.2c-.1-.2-.2-.5-.1-.7l2.2-8.2c.1-.4-.1-.7-.4-.9l-7.3-4.3c-.2-.1-.4-.3-.4-.6l-1.3-8.3c-.1-.4-.4-.7-.7-.7l-6.4-.7C73.5 25.1 76 31 76.7 32.5c.1.2.1.5 0 .7L67.9 53c-.2.4-.6.6-.9.5-2.1-.5-8.5-2.5-11.1-9.4-.2-.4.1-.9.5-1 2.4-1 10.2-5.2 11.3-18.5.4-4.4 1.4-8 2.7-10.8l-3.1-4.7c-.2-.3-.6-.5-.9-.3l-8.1 2.5c-.2.1-.5 0-.7-.1l-7.2-4.6c-.3-.2-.6-.2-.9 0l-7.2 4.6c-.2.1-.5.2-.7.1l-8.1-2.5c-.4-.1-.7 0-.9.3l-3.1 4.7c1.3 2.9 2.4 6.4 2.7 10.8 1.1 13.3 8.9 17.5 11.3 18.5.4.2.6.6.5 1-2.6 6.9-9 8.9-11.1 9.4-.4.1-.8-.1-.9-.5l-8.7-19.9c-.1-.2-.1-.5 0-.7.7-1.4 3.2-7.4 2.1-15.7l-6.4.7c-.4 0-.7.3-.7.7L17 26.5c0 .2-.2.5-.4.6l-7.3 4.3c-.3.2-.4.6-.3.9l2.2 8.2c.1.2 0 .5-.1.7l-5 6.8c-.2.3-.2.7 0 1l5.3 6.6c.2.2.2.4.2.7l-1.7 8.3c-.1.4.1.7.4.9l7.4 3.8c.3.2.7.1.9-.1l7.4-6.5c.5-.4 1.3-.1 1.4.5.3 2.9.6 9.6-2.9 15.7-.2.4-.1 1 .4 1.2 1.6.7 5 1.9 8.7 1.8.2 0 .4.1.6.2 1.1 1 5.8 5.2 7.1 11.1 0 .1.1.3.2.4.8.8 4.8 4.5 8.3 4.9h.2c3.6-.3 7.5-4 8.3-4.9.1-.1.2-.2.2-.4 1.3-5.9 6-10.1 7.1-11.1.2-.1.4-.2.6-.2 3.6.1 7.1-1.1 8.7-1.8.5-.2.6-.7.4-1.2-3.5-6.2-3.2-12.8-2.9-15.7.1-.7.9-1 1.4-.5l7.4 6.5c.3.2.6.3.9.1l7.4-3.8c.3-.2.5-.5.4-.9l-1.7-8.3c0-.2 0-.5.2-.7l5.4-6.6zM45 64.3c-.1.9-.2 2.4-1.3 2.8-1.1.4-2.7-1.3-4.9-3.9-1.5-1.7-1.7-2.5-1.9-2.9-.5-2 .6-3.7 1-4.3.4-.6 1.9-3.1 3.7-2.8 1 .1 1.8 1.1 2.3 2 .8 1.5 1 3.1 1.1 4.7.2 1.4.2 2.9 0 4.4zm2.6 17.9c-.1.2-.3.3-.5.2-.4-.2-.9-.6-1.1-1.1-.4-.9-.3-1.8.2-2s1.1.4 1.5 1.3c.2.6.1 1.2-.1 1.6zm.2-8.6c-.3-.1-.4-.4-.4-.7 0-3 1.1-6.5 1.9-8.6.3-.7 1.3-.7 1.6 0 .8 2.1 1.9 5.5 1.9 8.6 0 .3-.1.6-.4.7-1.5.8-3.3.8-4.6 0zm6.2 7.7c-.2.6-.8.9-1.1 1.1-.2.1-.4 0-.5-.2-.1-.4-.3-1-.1-1.6.4-.9 1-1.5 1.5-1.3s.6 1.1.2 2zm9-21.1c-.1.5-.4 1.2-1.9 2.9-2.3 2.6-3.8 4.3-4.9 3.9-1-.3-1.2-1.8-1.3-2.8-.2-1.5-.2-3-.1-4.5.1-1.6.3-3.3 1.1-4.7.5-.9 1.3-1.8 2.3-2 1.8-.2 3.3 2.2 3.7 2.8.5.7 1.6 2.4 1.1 4.4z"></path></g></switch></g><!----></svg>
