<svg version="1" xmlns="http://www.w3.org/2000/svg" width="1322.667" height="1322.667" viewBox="0 0 992.000000 992.000000"><path d="M491.6 67.3c-1.1 1.7-2.8 4.8-3.8 6.7-1.1 1.9-2.5 4.4-3.1 5.5-.7 1.1-3.9 6.7-7.1 12.5-3.3 5.8-6.6 11.3-7.4 12.2-.8 1-1.1 1.8-.6 1.8.5 0 .4.4-.2.8-.6.4-1.7 2-2.6 3.7-2.1 4.3-10.1 17.9-10.7 18.5-.3.3-.7 1.2-.9 2-.2.8-1 2.2-1.8 3.1-.8.8-1.4 1.8-1.4 2.2 0 .5-11 20-14 24.7-1 1.6-6.1 10.6-10.5 18.5-1.5 2.7-3.1 5.2-3.4 5.5-.3.3-.7 1.2-.9 2-.2.8-1 2.2-1.8 3.1-.8.8-1.4 1.8-1.4 2.1 0 .3-2.9 5.6-6.5 11.7-3.6 6.2-6.5 11.4-6.5 11.6 0 .2-1.3 2.4-3 4.8-1.6 2.5-3 4.8-3 5.1 0 .3-5.2 9.7-11.7 20.8-6.4 11.2-13 22.8-14.6 25.8-1.6 3-3.6 6.2-4.3 7.1-.8.8-1.4 1.8-1.4 2.1 0 .3-9.4 16.9-20.8 36.9-11.5 20-21.1 37.1-21.5 37.9-.4.8-1.6 2.8-2.7 4.5-1.1 1.6-2.3 3.7-2.7 4.5-.4.8-4.6 8.4-9.5 16.8-4.8 8.3-8.8 15.6-8.8 16.1 0 .5-.7 1.4-1.5 2.1-.8.7-1.3 1.6-1 2 .3.5.1 1-.4 1.2-.9.3-15.6 26.1-15.2 26.7.1.2-.1.7-.6 1-1.2.8-15.2 25.3-15.1 26.5 0 .5-.4 1.2-.9 1.5-.8.5-19.7 33.2-36.3 62.6-1.3 2.2-3.1 5.3-4.1 7-1.1 1.6-2.2 3.7-2.6 4.5-.8 1.8-8.9 15.8-10.3 18-.6.8-1.3 2.2-1.7 3-.3.8-2.8 5.2-5.4 9.6-2.7 4.5-4.9 8.7-4.9 9.3 0 .6-.4 1.1-.9 1.1s-1.4 1.2-2 2.7c-.6 1.6-2.2 4.6-3.6 6.8s-2.8 4.7-3.2 5.5c-.4.8-2.8 5.1-5.3 9.5-2.6 4.4-6 10.4-7.5 13.3-1.6 2.8-3.3 5.2-3.8 5.2-.6 0-.8.3-.5.6.7.6-18.1 33.7-19.4 34.2-.4.2-.8 1.1-.8 2 0 .8-.6 2.3-1.4 3.1-.7.9-2.8 4.2-4.5 7.4-1.8 3.2-9.2 16.2-16.5 29-7.3 12.8-14.4 25.2-15.8 27.7-1.4 2.5-4.6 8-7.2 12.3-2.5 4.3-4.6 8-4.6 8.2 0 .2-1.7 3.2-3.9 6.6-2.1 3.5-5.5 9.5-7.6 13.4-2.1 3.8-4.1 7.2-4.4 7.5-.3.3-1.4 2.1-2.3 4-1 1.9-3 5.5-4.4 8-1.5 2.5-4 7-5.7 10-1.6 3-3.6 6.2-4.3 7.1-.8.8-1.4 1.8-1.4 2.1 0 .3-4.1 7.7-9.1 16.4-5 8.8-10.1 17.7-11.4 19.9-1.2 2.2-6.5 11.4-11.7 20.5C7.9 912.4 0 926.3 0 927.1c0 .5 200.7.9 496 .9 272.8 0 496-.4 496-.9 0-1.1-4.7-9.8-7.1-13.2-1-1.5-1.9-3-1.9-3.3 0-.3-3.1-5.9-7-12.5-3.8-6.6-7-12.2-7-12.5 0-.2-2.5-4.5-5.5-9.5-3-5.1-5.5-9.4-5.5-9.6 0-.3-1.6-2.9-3.5-5.9-1.9-3-3.5-5.7-3.5-6 0-.3-2-3.9-4.4-8-2.4-4.1-4.2-7.7-3.8-8 .3-.3.1-.6-.4-.6s-2.1-2.1-3.4-4.8c-1.4-2.6-2.8-4.8-3.2-5-.5-.2-.8-.8-.8-1.2 0-.5-3.2-6.4-7.2-13.2-3.9-6.8-8.2-14.2-9.5-16.6-5.4-9.9-7.2-13-10.3-18.2-1.8-3-4.6-8-6.3-11-1.7-3-3.8-6.7-4.9-8.2-1-1.4-1.8-2.9-1.8-3.3 0-.5-1.8-3.6-4-7.1-2.2-3.5-4-6.6-4-6.8 0-.3-3.8-7.1-8.5-15.1-4.7-8.1-8.5-14.8-8.5-15 0-.2-2.7-5-6.1-10.7-3.4-5.7-7.2-12.3-8.5-14.8-1.3-2.5-2.9-5.2-3.4-6-1.3-2-6.7-11.4-10-17.5-1.5-2.8-5.9-10.5-9.9-17.2-3.9-6.8-7.1-12.5-7.1-12.8 0-.4-1.3-2.6-3-5-1.6-2.4-3-4.6-3-4.9 0-.4-11.6-20.9-13.9-24.6-.6-.8-1.9-3.1-2.9-5-1.1-1.9-7.2-12.7-13.7-24-6.5-11.3-12.7-22.1-13.7-24-1-1.9-3-5.3-4.3-7.5-1.4-2.2-3.2-5.6-4.2-7.5-.9-1.9-1.9-3.7-2.2-4-.6-.5-1.8-2.6-6.5-11-1.6-3-5.8-10.4-9.3-16.3-3.5-6-6.3-11-6.3-11.2 0-.2-2-3.8-4.5-7.8-2.5-4.1-4.5-7.8-4.5-8.2 0-.4-.8-1.9-1.9-3.3-1.8-2.6-3.9-6.3-8.4-14.7-1.2-2.2-2.4-4.2-2.7-4.5-.3-.3-1.2-1.9-2-3.5-.8-1.7-1.8-3.2-2.1-3.5-.3-.3-2.8-4.5-5.5-9.4-2.7-5-6.2-11.3-7.9-14.2-3.8-6.6-8.4-14.5-12-20.9-1.5-2.8-4.9-8.6-7.5-13-2.5-4.4-4.9-8.7-5.3-9.5-.4-.8-1.8-3.3-3.2-5.5-1.4-2.2-3.2-5.4-4-7-.8-1.7-1.9-3.7-2.4-4.5-.6-.8-2.6-4.4-4.7-8-2-3.6-4.6-8.1-5.7-10-1.1-1.9-4.4-7.8-7.4-13s-5.8-10.2-6.3-11c-1.9-3.2-10.6-18.7-11.9-21.3-.8-1.5-1.8-2.7-2.3-2.7-.4 0-.8-.4-.8-1 0-.5-2-4.4-4.5-8.6-2.5-4.1-4.5-7.7-4.5-7.9 0-.2-2-3.8-4.5-7.9-2.5-4.2-4.5-8.1-4.5-8.6 0-.6-.4-1-1-1-.5 0-1-.6-1-1.4 0-.8-.7-2.2-1.6-3-.8-.9-1.3-1.6-.9-1.6s-.3-1.2-1.4-2.6c-1.2-1.5-2.1-3.3-2.1-4 0-.8-.4-1.4-1-1.4-.5 0-1-.4-1-.9 0-.8-4.7-9.2-20.3-36.1-1.1-1.9-3.1-5.5-4.5-8-1.3-2.5-2.8-5-3.2-5.5-.4-.6-2.5-4.2-4.5-8-2.1-3.9-4.1-7.2-4.4-7.5-.3-.3-1.4-2.1-2.5-4-4.4-8.3-8.1-14.8-10.3-18.2-1.3-2.1-2.3-4.2-2.3-4.8 0-.5-.4-1-.9-1s-1.4-1.2-2-2.8c-.6-1.5-2.4-5-4-7.7-1.7-2.8-3.6-6.1-4.4-7.5-.7-1.4-4.8-8.5-9-15.8-4.2-7.3-7.7-13.7-7.7-14.2 0-.4-.4-1-.9-1.2-.4-.2-1.9-2.3-3.2-4.8-1.3-2.5-6-10.7-10.4-18.3C499.6 65.8 498.2 64 496 64c-1.8 0-3.1 1-4.4 3.3zm8.9 121.7c1.4 2.5 3 5.2 3.5 6 1 1.5 28 48.6 32.7 57 1.4 2.5 2.8 4.9 3.3 5.5.4.5 2.7 4.6 5 9 2.4 4.4 4.6 8.2 5 8.5.4.3 1.3 2 2.1 3.7.8 1.8 1.7 3.3 2.1 3.3.5 0 .8.4.8.9s5.6 10.7 12.5 22.7 12.5 22.1 12.5 22.5c0 .3.7 1.2 1.5 1.9s1.3 1.6 1 2c-.3.5-.2 1 .3 1.2.4.1 3.3 4.8 6.5 10.4 5.3 9.4 6.8 13.4 4.9 13.4-.4 0-2.1 2.6-3.7 5.7-1.6 3.2-3.2 6-3.5 6.3-.4.3-1.6 2.3-2.7 4.5-2.8 5.6-5.7 10.9-6.3 11.5-1 .9-15 26.3-15 27.2 0 .4-.4.8-.9.8s-1.4 1.2-2 2.7c-1 2.7-3 6.2-4.1 7.3-.3.3-1.3 2.1-2.3 4-.9 1.9-2.7 5.1-3.8 7-1.2 1.9-3.3 5.7-4.8 8.3-1.4 2.6-3.1 5.6-3.6 6.5-.6.9-6.1 10.7-12.4 21.7-6.3 11-11.8 20.1-12.3 20.3-.4.2-.8 1-.8 1.8 0 .7-1.6 3.8-3.5 6.8s-3.5 5.9-3.5 6.3c0 .5-.7 1.8-1.5 2.8-1.5 2-20.5 35-25.5 44.3-1.4 2.6-2.7 4.9-3 5.2-.3.3-1.1 1.6-1.8 2.9-.8 1.3-2.2 3.9-3.2 5.7-1.1 1.8-3 5.1-4.4 7.3-1.5 2.2-2.6 4.3-2.6 4.6 0 .3-.8 1.8-1.9 3.3-1 1.5-4.9 7.9-8.5 14.2-3.7 6.3-7.2 12.2-7.7 13-.5.8-4.2 7.1-8.2 14l-7.4 12.5h-98.6c-54.2 0-98.2-.2-97.9-.5.4-.3 2-3 3.6-6s3.8-6.9 4.7-8.5c1-1.7 4.9-8.4 8.6-15 3.7-6.6 7.2-12.7 7.8-13.7 4.2-7 9.9-17.4 9.6-17.7-.1-.2.1-.7.7-1 .5-.3 2.2-3 3.8-5.9 2.3-4.1 61-106.6 64.9-113.3.6-1 1.7-3 2.6-4.6 2.5-4.6 26.5-46.5 28.8-50.3 1.1-1.9 2.5-4.4 3.1-5.5.5-1.1 2.3-4.3 4-7 1.6-2.8 3.5-6.2 4.2-7.8.7-1.5 1.6-2.7 2-2.7.4 0 .8-.4.8-1 0-.8 8.7-16.6 12.1-22 .8-1.4 19.7-34.4 25.7-45 1.4-2.5 4.7-8.3 7.4-12.9 2.6-4.6 4.8-8.5 4.8-8.7 0-.2 1.5-2.7 3.3-5.6 3.5-5.8 5.1-8.5 9.7-16.8 3.5-6.4 6.5-11.6 14.5-25.5 3.2-5.5 7.1-12.5 8.8-15.5 1.6-3 3.8-6.7 4.9-8.2 1-1.4 1.8-2.9 1.8-3.2 0-.3 1.4-2.9 3.1-5.8 3.2-5.4 5.6-9.6 8-13.9.8-1.3 2.4-4.1 3.8-6.2 2.7-4.2 2.5-4.2 6.6 3.3zm135 235.2c2.2 4 5.4 9.7 7.2 12.8 1.8 3 4.6 8 6.3 11 1.6 3 3.5 6.2 4 7 1.6 2.5 10 17.1 10 17.5 0 .1 3.6 6.4 8 14s8 13.9 8 14c0 .1 2.9 5.3 6.5 11.4 3.6 6.2 6.5 11.6 6.5 12.2 0 .5.4.9.8.9s1.3 1.2 1.9 2.7c.7 1.6 2.6 5 4.3 7.8 1.6 2.7 4.2 7.2 5.7 10 1.5 2.7 3.2 5.7 3.8 6.6.5.9 2.5 4.3 4.3 7.5 1.7 3.2 3.7 6.6 4.2 7.4 2.7 4.2 8.3 14.5 7.9 14.6-.2.1.3 1 1.2 2 .9 1.1 2.8 3.9 4.1 6.4 1.4 2.5 4.4 7.7 6.7 11.7 2.2 3.9 5 8.8 6.1 10.7 2.8 5.1 5 8.8 10.9 19 2.8 4.9 5.1 9.3 5.1 9.7 0 .5.5.9 1 .9.6 0 1 .4 1 .9 0 .9 4.1 8.5 12 22.1 2.1 3.6 3.8 6.9 3.8 7.4s.4 1.2.9 1.5c.4.3 1.4 1.7 2.2 3.1.8 1.4 3.8 6.5 6.6 11.5 2.9 4.9 6.3 11 7.7 13.5 1.4 2.5 4.8 8.4 7.5 13.2 2.8 4.8 4.8 8.9 4.5 9.2-.3.4-.1.6.5.6.5 0 1.8 1.8 2.9 4 1 2.2 2.2 4 2.7 4 .4 0 .7.5.7 1 0 1.1 11.9 22.4 15.1 27.2 1.1 1.5 1.9 2.9 1.9 3.2 0 .3 1.7 3.3 3.7 6.8 2.1 3.5 3.6 6.6 3.5 7-.1.5.3.8.8.8.6 0 1 .4 1 .9s5.2 9.8 11.5 20.6c6.3 10.9 11.5 20.4 11.5 21.1 0 .8.4 1.4.8 1.4.5 0 1.6 1.5 2.5 3.2.9 1.8 3.2 6 5.2 9.3 2 3.3 3.8 6.8 4.2 7.7.3 1 .9 1.8 1.4 1.8.5 0 .9.4.9 1 0 .5 2.2 4.8 5 9.6 2.7 4.8 5 9 5 9.5 0 .4.4.9.9 1.1.5.1 1.1 1 1.3 1.8.3 1.3-29 1.5-258.9 1.6l-259.2.1 3.2-5.8c1.8-3.2 6.5-11.6 10.6-18.6 9.2-16.1 12.6-21.9 21.3-37.3 3-5.2 11.1-19.2 12.5-21.5.7-1.1 1.6-2.7 2-3.5.4-.8 3.5-6.4 7-12.4s6.3-11.3 6.3-11.7c0-.5.4-.9.8-.9.5 0 1.4-1.6 2.2-3.5.8-1.9 1.7-3.5 2.2-3.5.4 0 .8-.9.8-2s.4-2 .9-2 1.5-1.6 2.2-3.5c.7-1.9 1.7-3.5 2.1-3.5.4 0 .8-.5.8-1 0-1 26-47.3 27.7-49.5.5-.6 1.3-1.9 1.8-3 .8-1.7 10.8-19.2 14.5-25.5 6.5-10.9 19-33.4 19-34 0-.5.3-1 .8-1.2.4-.2 1.5-1.9 2.4-3.8 1-1.9 2.2-4.2 2.8-5 2.9-4.4 17-29.2 17-30 0-.6.5-1 1-1 .6 0 1-.5 1-1 0-.6 1.5-3.4 3.3-6.3 1.8-2.9 4.1-7 5.2-9.2 1.1-2.2 2.3-4.2 2.6-4.5.4-.3 1.6-2.1 2.7-4.1 1.1-2 2.6-4.7 3.4-6 .7-1.3 1.8-2.7 2.3-3.1.6-.4.6-.8.2-.8-.5 0 .1-1.2 1.2-2.6 1.2-1.5 2.1-3.2 2.1-4 0-.7.4-1.4.8-1.6.4-.2 2.6-3.4 4.8-7.2 2.1-3.8 4.6-8.1 5.4-9.5 6.5-11.1 8.4-14.7 8.2-15.4-.1-.4.2-.7.7-.7.5 0 1.9-2.1 3.2-4.8 1.2-2.6 2.5-4.9 2.9-5.2.9-.8 9-15.2 9-16.1 0-.5.5-.9 1.1-.9.5 0 .8-.4.4-.9-.3-.5.1-1.5.8-2.3.8-.7 3.6-5.4 6.4-10.3 11.6-20.9 16.8-30 17.3-30.5.6-.6 4.7-8.1 6.9-12.8.8-1.7 1.9-3.2 2.3-3.2.4 0 .8-.7.8-1.5 0-1.5 2-4.4 3-4.5.3 0 2.3 3.3 4.5 7.2zM398.4 697.1c.3.3-1.9 4.7-4.7 9.9-2.9 5.2-6.4 11.5-7.7 14-1.4 2.5-2.8 4.6-3.2 4.8-.5.2-.8.7-.8 1.2 0 .7-5.2 10.1-16.4 29.2-3.1 5.3-5.6 9.9-5.6 10.2 0 .3-1.5 2.9-3.4 5.8-1.8 2.9-4.5 7.5-6 10.3-1.5 2.7-3.1 5.7-3.6 6.5-3.7 5.8-9.9 17-10.4 18.8-.4 1.2-1.2 2.2-1.7 2.2s-.9.4-.9.9c0 .4-2.2 4.6-5 9.2-2.7 4.6-5.7 10-6.6 11.9-1 1.9-2.5 4.6-3.4 6-1 1.4-3 4.7-4.5 7.5-1.5 2.7-5.2 9.3-8.2 14.6l-5.5 9.6h-98.9c-55.5 0-98.9-.4-98.9-.9s.8-2 1.7-3.4c2.9-4.5 5.3-8.8 6.4-11.7.6-1.5 1.5-2.7 2-2.7s.9-.5.9-1.1c0-.6 1.5-3.6 3.4-6.7 6.3-10.6 15-25.7 15.1-26.2 0-.3.7-1.6 1.6-3 3.2-5.2 8.8-14.7 12.4-21.5 2.2-3.9 4.2-7.2 4.5-7.5.3-.3 1.5-2.3 2.6-4.5 1.2-2.2 4.5-8.2 7.5-13.3 3-5.1 6.1-10.5 6.9-12 1.8-3.2 8-13.8 9.7-16.7.7-1.1 1.5-2.7 1.9-3.5.4-.8 2.8-5 5.3-9.3 6.4-10.8 6.1-10.3 10.9-18.9 2.4-4.3 4.9-8.4 5.6-9 1-1 21.9-1.3 98.9-1.3 53.7.1 97.8.3 98.1.6z"/></svg>